<svg width="11" height="19" viewBox="0 0 11 19" fill="none" xmlns="http://www.w3.org/2000/svg">
<path d="M9.36872 18.5295L1.08412 10.2856C0.938612 10.1408 0.857178 9.94662 0.857178 9.74441C0.857178 9.5422 0.938612 9.34799 1.08412 9.20319L9.36872 0.956228C9.4365 0.888702 9.51754 0.835032 9.60706 0.798385C9.69657 0.761738 9.79275 0.742859 9.88991 0.742859C9.98707 0.742859 10.0832 0.761738 10.1728 0.798385C10.2623 0.835032 10.3433 0.888702 10.4111 0.956228C10.5505 1.09471 10.6286 1.28061 10.6286 1.47418C10.6286 1.66776 10.5505 1.85366 10.4111 1.99214L2.6205 9.74441L10.4111 17.4951C10.5501 17.6335 10.6278 17.8191 10.6278 18.0123C10.6278 18.2055 10.5501 18.3911 10.4111 18.5295C10.3433 18.597 10.2623 18.6507 10.1728 18.6873C10.0832 18.724 9.98707 18.7429 9.88991 18.7429C9.79275 18.7429 9.69657 18.724 9.60706 18.6873C9.51754 18.6507 9.4365 18.597 9.36872 18.5295V18.5295Z" fill="#0E2E87"/>
</svg>
