<svg width="19" height="33" viewBox="0 0 19 33" fill="none" xmlns="http://www.w3.org/2000/svg">
<path d="M15.9888 32.1635L1.2606 17.5078C1.00192 17.2504 0.857147 16.9051 0.857147 16.5456C0.857147 16.1861 1.00192 15.8409 1.2606 15.5835L15.9888 0.922184C16.1093 0.802137 16.2533 0.706724 16.4125 0.641575C16.5716 0.576426 16.7426 0.542862 16.9153 0.542862C17.0881 0.542862 17.259 0.576426 17.4182 0.641575C17.5773 0.706724 17.7214 0.802137 17.8419 0.922184C18.0898 1.16837 18.2286 1.49886 18.2286 1.84299C18.2286 2.18713 18.0898 2.51762 17.8419 2.7638L3.99193 16.5456L17.8419 30.3247C18.0889 30.5707 18.2272 30.9006 18.2272 31.2441C18.2272 31.5876 18.0889 31.9175 17.8419 32.1635C17.7214 32.2836 17.5773 32.379 17.4182 32.4441C17.259 32.5093 17.0881 32.5429 16.9153 32.5429C16.7426 32.5429 16.5716 32.5093 16.4125 32.4441C16.2533 32.379 16.1093 32.2836 15.9888 32.1635Z" fill="#0E2E87"/>
</svg>
