<svg width="19" height="33" viewBox="0 0 19 33" fill="none" xmlns="http://www.w3.org/2000/svg">
<path d="M3.01119 0.836461L17.7394 15.4922C17.998 15.7496 18.1428 16.0949 18.1428 16.4544C18.1428 16.8139 17.998 17.1591 17.7394 17.4165L3.01118 32.0778C2.89069 32.1979 2.74662 32.2933 2.58748 32.3584C2.42834 32.4236 2.25736 32.4571 2.08463 32.4571C1.9119 32.4571 1.74092 32.4236 1.58178 32.3584C1.42265 32.2933 1.27858 32.1979 1.15808 32.0778C0.91018 31.8316 0.771394 31.5011 0.771394 31.157C0.771394 30.8129 0.91018 30.4824 1.15808 30.2362L15.008 16.4544L1.15808 2.67532C0.911033 2.42926 0.772785 2.09936 0.772785 1.75589C0.772785 1.41242 0.911033 1.08252 1.15808 0.836461C1.27858 0.716415 1.42265 0.621002 1.58179 0.555852C1.74092 0.490702 1.91191 0.457137 2.08464 0.457137C2.25737 0.457137 2.42835 0.490702 2.58748 0.555852C2.74662 0.621002 2.89069 0.716415 3.01119 0.836461V0.836461Z" fill="#0E2E87"/>
</svg>
