<svg width="16" height="15" viewBox="0 0 16 15" fill="none" xmlns="http://www.w3.org/2000/svg">
<path d="M11.75 6.09375H10.8125C10.8121 5.7209 10.6639 5.36343 10.4002 5.09979C10.1366 4.83615 9.7791 4.68787 9.40625 4.6875V3.75C10.0276 3.75074 10.6233 3.99791 11.0627 4.43729C11.5021 4.87667 11.7493 5.47238 11.75 6.09375Z" fill="#FAFAFA"/>
<path d="M13.625 6.09375H12.6875C12.6865 5.22382 12.3405 4.3898 11.7254 3.77466C11.1103 3.15952 10.2762 2.8135 9.40629 2.8125V1.875C10.5248 1.87624 11.5971 2.32112 12.388 3.11202C13.1789 3.90292 13.6238 4.97525 13.625 6.09375ZM10.0311 10.0697L11.0811 9.01969C11.2217 8.87911 11.4004 8.78286 11.5951 8.74286C11.7898 8.70287 11.992 8.72089 12.1766 8.79469L13.4554 9.30657C13.6438 9.38198 13.8054 9.51213 13.9192 9.68024C14.033 9.84834 14.0938 10.0467 14.0938 10.2497V12.5752C14.0941 12.7134 14.0662 12.8502 14.0119 12.9773C13.9575 13.1043 13.8777 13.219 13.7775 13.3142C13.6773 13.4093 13.5587 13.4831 13.429 13.5308C13.2993 13.5786 13.1612 13.5993 13.0232 13.5919C4.05973 13.0341 2.24941 5.44219 1.91332 2.535C1.89704 2.39288 1.91104 2.24891 1.95439 2.11258C1.99774 1.97625 2.06946 1.85065 2.16484 1.74402C2.26021 1.6374 2.37708 1.55218 2.50776 1.49396C2.63843 1.43575 2.77995 1.40585 2.92301 1.40625H5.20723C5.41023 1.40625 5.60858 1.46707 5.77668 1.58086C5.94479 1.69466 6.07494 1.85622 6.15035 2.04469L6.66176 3.32344C6.73556 3.50802 6.75358 3.7102 6.71359 3.90493C6.67359 4.09965 6.57734 4.27836 6.43676 4.41891L5.38676 5.46891C5.38676 5.46891 5.96895 9.56204 10.0311 10.0697Z" fill="#FAFAFA"/>
</svg>
