<?xml version="1.0" encoding="utf-8"?>
<!-- Generator: Adobe Illustrator 26.4.1, SVG Export Plug-In . SVG Version: 6.00 Build 0)  -->
<svg version="1.1" id="Слой_1" xmlns="http://www.w3.org/2000/svg" xmlns:xlink="http://www.w3.org/1999/xlink" x="0px" y="0px"
	 viewBox="0 0 100 100" style="enable-background:new 0 0 100 100;" xml:space="preserve">
<style type="text/css">
	.st0{fill:#0F2E88;}
	.st1{fill:#1D3B8F;}
	.st2{opacity:0.5;fill:#FFFFFF;}
	.st3{opacity:0.75;fill:#FFFFFF;}
	.st4{fill:#FFFFFF;}
	.st5{opacity:0.25;fill:#FFFFFF;}
	.st6{fill:#1F3D85;}
	.st7{fill:#F1F4FB;}
	.st8{fill:#DCE2EF;}
	.st9{opacity:0.5;fill:#1F3D85;}
	.st10{opacity:0.75;fill:#1F3D85;}
	.st11{opacity:0.25;fill:#1F3D85;}
</style>
<g>
	<g>
		<path class="st1" d="M50,1.41C23.16,1.41,1.41,23.16,1.41,50c0,4.99,0.75,9.8,2.15,14.32c0,0,2.68,10.02,9.72,17.5
			c0.17,0.18,0.37,0.26,0.37,0.26s0.13,0.05,0.28,0.07c2.21,0.24,4.81-6.09,6.37-11.18c1.02-3.31,1.48-6.09,1.71-7.81
			c0.06-0.49,0.09-1.08,0.04-1.74c-0.03-0.49-0.1-0.93-0.19-1.31c-0.4-1.8-0.8-3.62-1.18-5.48c-0.56-2.75-1.08-5.45-1.55-8.1
			c-0.03-0.13-0.06-0.37,0.02-0.65c0.02-0.08,0.17-0.62,0.67-0.86c0.65-0.31,1.34,0.14,1.52,0.25c0.34,0.22,0.54,0.5,0.64,0.67
			c0.68,1.83,1.36,3.67,2.05,5.5c0.37,1.14,0.72,2.1,1.02,2.86c0.45,1.14,0.95,2.3,1.89,3.1c0.31,0.26,0.66,0.48,1.08,0.46
			c0.1,0,0.56-0.04,0.88-0.41c0.14-0.16,0.2-0.33,0.23-0.43c1.22-9.09,2.31-15.73,2.81-16.94c0.11-0.25,0.35-0.85,0.9-1.07
			c0.36-0.14,0.95-0.18,1.49,0.02c0.02,0.01,0.03,0.01,0.04,0.01c0.12,0.04,0.42,0.15,0.64,0.45c0.12,0.17,0.18,0.33,0.21,0.44
			c-0.2,5.45-0.41,10.89-0.61,16.34c-0.13,0.77,0.05,1.4,0.4,1.54c0.09,0.04,0.26,0.07,0.44,0.01c0.26-0.09,0.4-0.33,0.45-0.43
			c0.23-0.43,1.26-3.34,2.58-7.35c0.22-0.56,0.37-1.02,0.47-1.3c0.64-1.89,2.27-7.25,2.82-8.44c0.09-0.19,0.22-0.42,0.45-0.64
			c0.25-0.23,0.52-0.35,0.66-0.42c0.2-0.09,0.4-0.18,0.66-0.2c0.6-0.04,1.21,0.31,1.51,0.69c0.26,0.33,0.31,0.71,0.16,2.4
			c-0.13,1.44-0.28,2.39-0.28,2.39c-0.1,0.65-0.31,2.03-0.51,3.04c-0.37,1.87-1.22,5.26-2.63,9.53c-0.3,0.61-0.42,1.15-0.47,1.51
			c-0.09,0.64-0.17,1.19,0.18,1.53c0.33,0.32,0.84,0.24,0.87,0.24c0.45-0.07,0.74-0.44,0.89-0.63c1.12-1.47,2.37-3.26,2.48-3.43
			c1.66-2.5,3.32-5.01,4.98-7.51c0.4-0.61,0.82-1.03,1.12-1.28c0.5-0.43,0.92-0.78,1.55-0.83c0.18-0.02,0.65-0.05,1.08,0.24
			c0.41,0.28,0.56,0.69,0.63,0.89c0.35,1.01-0.06,2.06-0.28,2.61c-0.65,1.61-1.34,3.19-2.08,4.75c-0.74,1.37-1.81,3.31-3.19,5.59
			c-1.05,1.75-1.59,2.54-2.73,4.51c0,0-1.33,2.31-2.76,6.04c-0.11,0.29-0.64,1.73-0.3,3.26c0.12,0.54,0.31,0.9,0.63,1.11
			c0.53,0.34,1.22,0.13,1.53,0.04c0.57-0.17,2.06-0.29,5.03-0.53c2.36-0.19,3.5,0.01,3.92,0.09c0.65,0.13,1.5,0.37,2.38,0.93
			c0.53,0.34,1.17,0.76,1.49,1.56c0.19,0.47,0.19,0.91,0.19,1.09c0,0.39,0,0.78-0.24,1.08c-0.26,0.32-0.67,0.39-0.88,0.41
			c-1.46,0.2-3.15-0.14-4.36-0.11c-0.64,0.02-1.68,0.42-3.74,1.22c-1.77,0.69-3.04,1.31-3.31,1.45c-2.13,1.06-2.04,1.28-3.76,2.09
			c-1.12,0.53-2.14,0.9-4.18,1.64c-1.39,0.5-1.99,0.68-2.86,1.24c-1.01,0.64-1.65,1.32-2,1.7c-1.01,1.08-1.43,1.95-2.04,3.22
			c-0.24,0.5-0.47,1.04-0.25,1.52c0.08,0.18,0.2,0.36,0.64,0.67c0.15,0.11,0.29,0.2,0.42,0.28c5.47,2.13,11.42,3.3,17.64,3.3
			c26.84,0,48.59-21.76,48.59-48.59C98.59,23.16,76.84,1.41,50,1.41z"/>
		<path class="st0" d="M50,1.41C23.16,1.41,1.41,23.16,1.41,50c0,5.49,0.91,10.76,2.59,15.68c-0.11-1.14-0.17-2.29-0.17-3.46
			c0-19.5,15.81-35.3,35.3-35.3c19.5,0,35.3,15.81,35.3,35.3c0,19.28-15.46,34.95-34.66,35.29c3.3,0.71,6.72,1.08,10.23,1.08
			c26.84,0,48.59-21.76,48.59-48.59C98.59,23.16,76.84,1.41,50,1.41z"/>
		<path class="st2" d="M88.95,48.73l-1.64-0.27c-0.08-0.01-0.14-0.06-0.18-0.13l-0.71-1.5c-0.09-0.18-0.34-0.18-0.43-0.01
			l-0.76,1.48c-0.03,0.05-0.07,0.09-0.13,0.11c-0.02,0.01-0.04,0.01-0.06,0.01l-1.65,0.21c-0.02,0-0.04,0.01-0.06,0.02c0,0,0,0,0,0
			c-0.01,0-0.02,0.01-0.02,0.01c0,0,0,0-0.01,0c-0.01,0.01-0.02,0.01-0.02,0.02c0,0,0,0,0,0c-0.09,0.08-0.11,0.21-0.04,0.32
			c0.01,0.01,0.02,0.02,0.03,0.04l1.17,1.18c0.01,0.01,0.02,0.02,0.02,0.03c0,0,0,0.01,0.01,0.01c0.01,0.01,0.01,0.02,0.02,0.03
			c0,0,0,0,0,0c0.01,0.02,0.02,0.04,0.02,0.06c0,0.01,0,0.02,0,0.04c0,0,0,0,0,0.01c0,0.01,0,0.03,0,0.04l-0.15,0.78l-0.16,0.85
			c-0.02,0.1,0.02,0.19,0.09,0.24c0.07,0.05,0.16,0.07,0.25,0.02l0.41-0.21l1.07-0.54c0.06-0.03,0.13-0.03,0.2-0.01c0,0,0,0,0,0
			c0.01,0,0.02,0.01,0.03,0.01l0.83,0.45l0.63,0.35c0.14,0.08,0.31,0,0.35-0.14c0,0,0,0,0-0.01c0-0.01,0-0.02,0.01-0.03
			c0-0.02,0-0.05,0-0.07l-0.04-0.23l-0.22-1.41c0-0.02,0-0.04,0-0.05c0,0,0,0,0,0c0-0.02,0-0.03,0.01-0.05
			c0.01-0.04,0.03-0.08,0.07-0.11l1.21-1.14C89.22,49,89.15,48.76,88.95,48.73z"/>
		<path class="st3" d="M82.53,29.14l-2.64-0.3c-0.13-0.01-0.24-0.09-0.3-0.2l-1.25-2.35c-0.15-0.28-0.56-0.27-0.69,0.02l-1.1,2.42
			c-0.04,0.09-0.11,0.15-0.19,0.19c-0.03,0.01-0.06,0.02-0.09,0.03l-2.62,0.46c-0.04,0.01-0.07,0.02-0.1,0.03c0,0,0,0-0.01,0
			c-0.01,0.01-0.03,0.01-0.04,0.02c0,0-0.01,0-0.01,0.01c-0.01,0.01-0.02,0.02-0.03,0.03c0,0,0,0-0.01,0
			c-0.14,0.13-0.17,0.35-0.05,0.51c0.01,0.02,0.03,0.04,0.05,0.06l1.96,1.8c0.02,0.01,0.03,0.03,0.04,0.05c0,0,0.01,0.01,0.01,0.01
			c0.01,0.02,0.02,0.03,0.03,0.05c0,0,0,0,0,0c0.02,0.03,0.03,0.07,0.03,0.1c0,0.02,0.01,0.04,0.01,0.06c0,0,0,0.01,0,0.01
			c0,0.02,0,0.04,0,0.06l-0.18,1.27l-0.19,1.37c-0.02,0.16,0.05,0.29,0.16,0.37c0.11,0.08,0.27,0.1,0.41,0.02l0.64-0.36l1.68-0.95
			c0.1-0.05,0.21-0.06,0.31-0.03c0,0,0,0,0,0c0.01,0,0.03,0.01,0.04,0.02l1.36,0.66l1.03,0.5c0.23,0.11,0.49-0.03,0.54-0.26
			c0,0,0-0.01,0-0.01c0-0.01,0.01-0.03,0.01-0.04c0-0.04,0-0.07-0.01-0.11l-0.07-0.36l-0.46-2.24c-0.01-0.03-0.01-0.06-0.01-0.08
			c0,0,0,0,0,0c0-0.03,0-0.05,0.01-0.08c0.02-0.07,0.05-0.13,0.1-0.18l1.85-1.91C82.98,29.56,82.85,29.17,82.53,29.14z"/>
		<path class="st4" d="M66.37,13.69l-4.05-0.26c-0.19-0.01-0.37-0.12-0.47-0.29l-2.08-3.49c-0.25-0.42-0.87-0.37-1.05,0.08
			l-1.5,3.77c-0.05,0.13-0.15,0.24-0.28,0.31c-0.04,0.02-0.09,0.04-0.14,0.05l-3.96,0.9c-0.06,0.01-0.11,0.03-0.15,0.06
			c0,0-0.01,0-0.01,0c-0.02,0.01-0.04,0.02-0.06,0.04c0,0-0.01,0.01-0.01,0.01c-0.02,0.01-0.04,0.03-0.05,0.05
			c0,0-0.01,0.01-0.01,0.01c-0.2,0.21-0.23,0.54-0.03,0.78c0.02,0.03,0.05,0.06,0.08,0.08l3.12,2.6c0.02,0.02,0.05,0.04,0.07,0.07
			c0.01,0.01,0.01,0.01,0.02,0.02c0.02,0.02,0.04,0.05,0.05,0.08c0,0,0,0,0,0c0.03,0.05,0.05,0.1,0.06,0.15
			c0.01,0.03,0.01,0.06,0.01,0.09c0,0,0,0.01,0,0.01c0,0.03,0,0.06,0,0.09l-0.18,1.94l-0.19,2.1c-0.02,0.24,0.1,0.44,0.28,0.55
			c0.18,0.11,0.41,0.13,0.62,0l0.95-0.6l2.48-1.57c0.14-0.09,0.32-0.11,0.48-0.07c0,0,0,0,0,0c0.02,0.01,0.04,0.01,0.06,0.02
			l2.12,0.91l1.61,0.69c0.36,0.16,0.74-0.08,0.81-0.43c0,0,0-0.01,0-0.01c0-0.02,0.01-0.04,0.01-0.07c0-0.06,0-0.11-0.02-0.17
			l-0.14-0.55l-0.86-3.39c-0.01-0.04-0.02-0.09-0.02-0.13c0,0,0,0,0,0c0-0.04,0-0.08,0.01-0.12c0.02-0.1,0.06-0.2,0.13-0.28
			l2.67-3.05C67.1,14.3,66.86,13.72,66.37,13.69z"/>
		<path class="st5" d="M87.27,65.31l-1.15,0.05c-0.05,0-0.11-0.02-0.14-0.07l-0.69-0.92c-0.08-0.11-0.26-0.08-0.29,0.06l-0.31,1.11
			c-0.01,0.04-0.04,0.07-0.07,0.09c-0.01,0.01-0.02,0.01-0.04,0.02l-1.08,0.38c-0.02,0.01-0.03,0.01-0.04,0.02c0,0,0,0,0,0
			c-0.01,0-0.01,0.01-0.01,0.01c0,0,0,0,0,0c0,0-0.01,0.01-0.01,0.01c0,0,0,0,0,0c-0.05,0.06-0.05,0.16,0.01,0.22
			c0.01,0.01,0.02,0.01,0.02,0.02l0.96,0.63c0.01,0,0.01,0.01,0.02,0.02c0,0,0,0,0,0c0.01,0.01,0.01,0.01,0.02,0.02c0,0,0,0,0,0
			c0.01,0.01,0.02,0.03,0.02,0.04c0,0.01,0.01,0.02,0.01,0.02c0,0,0,0,0,0c0,0.01,0,0.02,0,0.03l0.01,0.55l0.01,0.6
			c0,0.07,0.04,0.12,0.1,0.15c0.05,0.03,0.12,0.02,0.17-0.02l0.25-0.2l0.65-0.52c0.04-0.03,0.09-0.04,0.13-0.03c0,0,0,0,0,0
			c0.01,0,0.01,0,0.02,0l0.62,0.19l0.48,0.14c0.11,0.03,0.21-0.05,0.21-0.15c0,0,0,0,0,0c0-0.01,0-0.01,0-0.02
			c0-0.02,0-0.03-0.01-0.05l-0.06-0.15l-0.35-0.93c0-0.01-0.01-0.02-0.01-0.04c0,0,0,0,0,0c0-0.01,0-0.02,0-0.03
			c0-0.03,0.01-0.06,0.03-0.08l0.66-0.94C87.5,65.45,87.41,65.3,87.27,65.31z"/>
	</g>
</g>
</svg>
