<?xml version="1.0" encoding="UTF-8"?>
<svg id="_Слой_1" data-name="Слой 1" xmlns="http://www.w3.org/2000/svg" viewBox="0 0 310 72">
  <defs>
    <style>
      .cls-1, .cls-2, .cls-3, .cls-4 {
        fill: #1f3d85;
      }

      .cls-5 {
        fill: #dce2ef;
      }

      .cls-2 {
        opacity: .5;
      }

      .cls-3 {
        opacity: .25;
      }

      .cls-6 {
        fill: #f1f4fb;
      }

      .cls-4 {
        opacity: .75;
      }
    </style>
  </defs>
  <g>
    <g>
      <path class="cls-6" d="M101.7,25.32l-8.82-10.64v17.89h-3.73V10.22l-3.03-3.66h4.92l10.64,12.76,10.77-12.76h4.92l-3.03,3.66v22.35h-3.73V14.69l-8.89,10.64Z"/>
      <path class="cls-6" d="M114.52,32.78h-4.14V15.25l-8.69,10.39-8.62-10.39v17.53h-4.14V10.3l-3.26-3.94h5.44l10.54,12.65,10.68-12.65h5.44l-3.26,3.94v22.48Zm-3.73-.41h3.32V10.15l2.8-3.38h-4.39l-10.87,12.88-10.73-12.88h-4.39l2.8,3.38v22.22h3.32V14.12l9.03,10.88,9.09-10.88v18.25Z"/>
    </g>
    <g>
      <path class="cls-6" d="M126.84,14.09h3.87l9.76,18.48h-3.94l-1.43-2.72h-2.16c-1.12,0-2.22,.09-3.31,.28-1.09,.19-2.09,.41-2.98,.68-.9,.27-1.65,.55-2.27,.84-.62,.29-.99,.53-1.13,.71l-.1,.21h-3.77l8.65-16.21-1.19-2.27Zm6.56,12.48l-3.52-6.69-4.29,8.26c.58-.3,1.48-.64,2.69-1.01,1.21-.37,2.75-.56,4.64-.56h.49Z"/>
      <path class="cls-6" d="M140.81,32.78h-4.4l-1.43-2.72h-2.04c-1.1,0-2.2,.09-3.28,.28-1.08,.18-2.07,.41-2.96,.67-.88,.26-1.64,.54-2.24,.83-.73,.34-.97,.55-1.05,.64l-.15,.3h-4.23l8.76-16.42-1.29-2.47h4.33l9.98,18.89Zm-4.16-.41h3.48l-9.55-18.07h-3.41l1.08,2.06-8.54,16.01h3.3l.07-.13c.16-.22,.55-.46,1.21-.78,.62-.29,1.39-.58,2.29-.85,.9-.27,1.91-.5,3.01-.69,1.1-.19,2.23-.28,3.35-.28h2.28l1.43,2.72Zm-11.55-3.75l4.76-9.18,3.86,7.34h-.82c-1.85,0-3.39,.18-4.58,.55-1.19,.37-2.08,.7-2.65,1l-.57,.3Zm4.77-8.3l-3.83,7.39c.56-.24,1.28-.5,2.17-.77,1.22-.38,2.8-.57,4.7-.57h.15l-3.18-6.05Z"/>
    </g>
    <g>
      <path class="cls-6" d="M146.75,18.1l-1.53-3.59h17.12v18.06h-3.8v-14.47h-5.06c-.12,1.09-.27,2.23-.45,3.42-.19,1.19-.44,2.35-.75,3.49-.31,1.14-.71,2.23-1.19,3.26-.48,1.03-1.05,1.95-1.73,2.74-.3,.35-.63,.63-.98,.84-.35,.21-.7,.37-1.05,.47-.35,.1-.68,.17-.99,.21-.31,.03-.58,.05-.78,.05h-1.85v-3.63h.94c.37,0,.78-.13,1.22-.38,.44-.26,.92-.79,1.43-1.6,.44-.72,.8-1.42,1.06-2.11,.27-.69,.49-1.39,.66-2.11,.17-.72,.31-1.46,.4-2.21,.09-.76,.17-1.56,.24-2.42h-2.93Z"/>
      <path class="cls-6" d="M162.54,32.78h-4.21v-14.47h-4.67c-.11,1.04-.26,2.13-.43,3.25-.19,1.19-.44,2.37-.75,3.51-.31,1.14-.72,2.25-1.2,3.29-.48,1.05-1.07,1.98-1.76,2.78-.32,.36-.66,.66-1.03,.88-.36,.22-.73,.38-1.09,.49-.36,.11-.71,.18-1.03,.22-.32,.04-.59,.05-.81,.05h-2.05v-4.03h1.14c.33,0,.71-.12,1.12-.36,.41-.24,.87-.76,1.36-1.54,.43-.7,.78-1.4,1.05-2.08,.26-.68,.48-1.38,.65-2.08,.17-.71,.3-1.45,.4-2.19,.09-.69,.16-1.43,.23-2.2h-2.84l-1.71-4h17.63v18.47Zm-3.8-.41h3.39V14.71h-16.61l1.36,3.18h3.02l-.02,.22c-.07,.85-.15,1.67-.24,2.43-.09,.76-.23,1.51-.41,2.24-.18,.73-.4,1.44-.67,2.14-.27,.69-.63,1.42-1.08,2.14-.53,.85-1.03,1.4-1.5,1.67-.47,.27-.92,.41-1.32,.41h-.74v3.22h1.64c.2,0,.46-.02,.76-.05,.3-.03,.62-.1,.96-.2,.33-.1,.67-.25,1-.45,.33-.2,.64-.46,.93-.8,.66-.77,1.23-1.68,1.7-2.69,.47-1.02,.87-2.11,1.17-3.23,.31-1.12,.56-2.29,.74-3.46,.18-1.17,.34-2.32,.45-3.41l.02-.18h5.44v14.47Z"/>
    </g>
    <g>
      <path class="cls-6" d="M173.67,28.95h11.33v3.63h-14.89V14.51h14.23v3.59h-10.67v4.39c.79-.46,1.67-.76,2.63-.87,.96-.12,1.97-.17,3.02-.17h2.65v3.59h-2.65c-.84,0-1.53,.02-2.07,.05-.55,.03-1.02,.09-1.41,.16-.4,.07-.76,.17-1.08,.31-.33,.14-.69,.31-1.08,.52v2.86Z"/>
      <path class="cls-6" d="M185.2,32.78h-15.3V14.31h14.63v4h-10.67v3.85c.73-.38,1.54-.62,2.4-.73,.97-.12,1.99-.18,3.04-.18h2.85v4h-2.85c-.83,0-1.52,.02-2.06,.05-.53,.03-1,.09-1.39,.15-.38,.07-.73,.17-1.04,.3-.29,.12-.61,.28-.96,.46v2.53h11.33v4.03Zm-14.89-.41h14.48v-3.22h-11.33v-3.19l.11-.06c.4-.21,.77-.39,1.1-.53,.34-.14,.72-.25,1.13-.33,.4-.07,.88-.12,1.43-.16,.55-.04,1.25-.05,2.09-.05h2.45v-3.18h-2.45c-1.03,0-2.04,.06-2.99,.17-.93,.11-1.79,.4-2.55,.85l-.31,.18v-4.95h10.67v-3.18h-13.82v17.66Z"/>
    </g>
    <g>
      <path class="cls-6" d="M194.76,32.57h-3.56V14.51h3.56v7.22c.6-.3,1.31-.45,2.13-.45,.74,0,1.61,.09,2.6,.26,.99,.17,1.94,.26,2.84,.26,.39,0,.78-.03,1.15-.09,.37-.06,.74-.18,1.12-.37v-6.83h3.56v18.06h-3.56v-7.57c-.35,.19-.7,.31-1.05,.37-.35,.06-.71,.09-1.08,.09-.98,0-1.91-.08-2.79-.24-.88-.16-1.77-.24-2.65-.24-.4,0-.78,.03-1.15,.09-.37,.06-.74,.17-1.12,.33v7.18Z"/>
      <path class="cls-6" d="M208.36,32.78h-3.96v-7.45c-.27,.12-.54,.2-.81,.24-.36,.06-.73,.09-1.11,.09-.98,0-1.94-.08-2.83-.25-.87-.16-1.75-.24-2.61-.24-.38,0-.76,.03-1.12,.08-.31,.05-.63,.14-.94,.27v7.25h-3.96V14.31h3.96v7.11c.56-.23,1.21-.34,1.92-.34,.75,0,1.64,.09,2.63,.26,.97,.17,1.92,.26,2.81,.26,.38,0,.76-.03,1.12-.08,.31-.05,.63-.15,.94-.29v-6.91h3.96v18.47Zm-3.56-.41h3.15V14.71h-3.15v6.76l-.11,.06c-.39,.19-.78,.32-1.18,.39-.38,.06-.78,.09-1.18,.09-.91,0-1.88-.09-2.88-.26-.97-.17-1.83-.26-2.56-.26-.78,0-1.46,.15-2.04,.43l-.29,.15v-7.34h-3.15v17.66h3.15v-7.11l.12-.05c.39-.17,.78-.29,1.17-.35,.38-.06,.78-.09,1.18-.09,.89,0,1.79,.08,2.69,.25,.87,.16,1.79,.24,2.75,.24,.36,0,.71-.03,1.05-.08,.33-.05,.66-.17,.98-.34l.3-.16v7.7Z"/>
    </g>
    <g>
      <path class="cls-6" d="M219.52,20.19c.4,.21,.76,.38,1.08,.52,.33,.14,.69,.24,1.08,.31,.39,.07,.87,.12,1.41,.16,.55,.03,1.24,.05,2.07,.05h1.85c.91,0,1.75,.12,2.53,.37,.78,.24,1.45,.6,2.02,1.06,.57,.47,1.02,1.06,1.36,1.78,.34,.72,.51,1.55,.51,2.48s-.17,1.78-.51,2.49c-.34,.71-.79,1.3-1.36,1.76-.57,.47-1.24,.81-2.02,1.05-.78,.23-1.62,.35-2.53,.35h-11.09V14.51h3.59v5.68Zm7.5,8.75c.37,0,.73-.03,1.06-.09,.34-.06,.63-.16,.89-.31,.26-.15,.46-.36,.63-.63,.16-.27,.24-.62,.24-1.06,0-.42-.08-.76-.24-1.03-.16-.27-.37-.48-.63-.63-.26-.15-.56-.25-.91-.3-.35-.05-.7-.07-1.05-.07h-1.85c-1.05,0-2.05-.06-3.02-.17-.96-.12-1.84-.41-2.63-.87v5.16h7.5Z"/>
      <path class="cls-6" d="M227.02,32.78h-11.29V14.31h4v5.76c.35,.18,.67,.34,.96,.46,.31,.13,.66,.23,1.04,.3,.38,.07,.85,.12,1.39,.15,.54,.03,1.23,.05,2.06,.05h1.85c.92,0,1.79,.13,2.59,.38,.8,.25,1.5,.62,2.09,1.1,.59,.48,1.07,1.1,1.42,1.85,.35,.75,.52,1.61,.52,2.56s-.18,1.85-.53,2.58c-.35,.73-.82,1.35-1.42,1.83-.59,.48-1.29,.84-2.09,1.08-.79,.24-1.66,.36-2.59,.36Zm-10.88-.41h10.88c.88,0,1.71-.11,2.47-.34,.75-.22,1.41-.56,1.95-1.01,.54-.44,.98-1.01,1.3-1.69,.32-.68,.49-1.49,.49-2.41s-.16-1.7-.49-2.39c-.32-.69-.76-1.26-1.3-1.71-.55-.45-1.2-.79-1.95-1.03-.76-.24-1.59-.36-2.47-.36h-1.85c-.84,0-1.54-.02-2.09-.05-.55-.04-1.03-.09-1.43-.16-.41-.07-.79-.18-1.13-.33-.33-.14-.7-.32-1.1-.53l-.11-.06v-5.6h-3.18v17.66Zm10.88-3.22h-7.7v-5.72l.31,.18c.76,.45,1.62,.73,2.55,.85,.95,.11,1.95,.17,2.99,.17h1.85c.35,0,.72,.02,1.07,.07,.37,.05,.7,.16,.98,.32,.28,.17,.52,.4,.7,.7,.18,.3,.27,.68,.27,1.13,0,.48-.09,.87-.27,1.17-.18,.3-.41,.53-.7,.7-.28,.16-.6,.28-.96,.34-.35,.06-.72,.09-1.1,.09Zm-7.29-.41h7.29c.36,0,.71-.03,1.03-.08,.31-.05,.59-.15,.82-.29,.23-.13,.41-.32,.56-.56,.14-.23,.21-.56,.21-.96,0-.38-.07-.69-.21-.92-.14-.24-.33-.42-.56-.56-.23-.14-.51-.23-.83-.27-.34-.05-.68-.07-1.02-.07h-1.85c-1.05,0-2.08-.06-3.04-.18-.87-.1-1.67-.35-2.4-.73v4.61Z"/>
    </g>
    <g>
      <path class="cls-6" d="M242.74,32.57h-3.8V14.51h3.8v7.29h1.19c.63,0,1.16-.05,1.59-.16,.43-.1,.82-.3,1.17-.57l5.09-6.56h4.6l-6.63,8.47,3.03,4.11c.53,.74,1.1,1.24,1.71,1.48,.6,.24,1.14,.37,1.6,.37h1.26v3.63h-1.57c-.47,0-.92-.02-1.36-.05-.44-.03-.88-.15-1.33-.33-.44-.19-.88-.47-1.33-.85-.44-.38-.91-.92-1.39-1.62l-3.17-4.53c-.47,.19-.95,.31-1.45,.37-.5,.06-.99,.09-1.48,.09h-1.53v6.94Z"/>
      <path class="cls-6" d="M257.56,32.78h-1.77c-.47,0-.93-.02-1.38-.05-.46-.04-.93-.15-1.39-.35-.46-.19-.92-.49-1.38-.89-.45-.39-.93-.95-1.43-1.66l-3.08-4.4c-.43,.16-.89,.27-1.35,.32-.5,.06-1.01,.09-1.51,.09h-1.33v6.94h-4.21V14.31h4.21v7.29h.98c.61,0,1.13-.05,1.54-.15,.39-.09,.75-.27,1.07-.52l5.14-6.62h5.12l-6.79,8.68,2.94,3.99c.51,.71,1.06,1.19,1.62,1.41,.58,.23,1.09,.35,1.53,.35h1.46v4.03Zm-10.28-7.84l3.27,4.67c.48,.68,.94,1.21,1.36,1.58,.42,.37,.85,.64,1.27,.82,.42,.18,.84,.28,1.26,.32,.43,.03,.89,.05,1.34,.05h1.37v-3.22h-1.05c-.49,0-1.05-.13-1.68-.38-.64-.26-1.24-.78-1.8-1.55l-3.12-4.24,6.46-8.27h-4.09l-5.04,6.5-.02,.02c-.37,.3-.79,.5-1.25,.61-.44,.11-.99,.16-1.63,.16h-1.39v-7.29h-3.39v17.66h3.39v-6.94h1.74c.48,0,.97-.03,1.46-.09,.48-.06,.95-.17,1.39-.35l.15-.06Z"/>
    </g>
    <g>
      <path class="cls-6" d="M277.82,14.51h3.56v18.06h-3.56v-13.04l-10.53,13.04h-3.56V14.51h3.56v12.97l10.53-12.97Z"/>
      <path class="cls-6" d="M281.58,32.78h-3.96v-12.67l-10.23,12.67h-3.86V14.31h3.96v12.6l10.23-12.6h3.86v18.47Zm-3.56-.41h3.15V14.71h-3.26l-10.83,13.34V14.71h-3.15v17.66h3.26l10.83-13.41v13.41Z"/>
    </g>
    <g>
      <path class="cls-6" d="M303.24,14.51h3.56v18.06h-3.56v-13.04l-10.53,13.04h-3.56V14.51h3.56v12.97l10.53-12.97Zm-4.92-4.29c.56,0,1.02-.08,1.38-.24,.36-.16,.63-.38,.82-.65,.19-.27,.31-.55,.38-.85,.07-.3,.1-.59,.1-.87h4.01c-.07,.53-.22,1.1-.45,1.69-.23,.59-.6,1.14-1.12,1.64-.51,.5-1.18,.91-2.01,1.24-.83,.33-1.87,.49-3.12,.49s-2.3-.16-3.12-.49c-.83-.33-1.49-.74-2.01-1.24-.51-.5-.88-1.05-1.12-1.64-.23-.59-.38-1.16-.45-1.69h4.01c0,.28,.03,.57,.1,.87,.07,.3,.2,.59,.38,.85,.19,.27,.46,.48,.82,.65,.36,.16,.82,.24,1.38,.24Z"/>
      <path class="cls-6" d="M307,32.78h-3.96v-12.67l-10.23,12.67h-3.86V14.31h3.96v12.6l10.23-12.6h3.86v18.47Zm-3.56-.41h3.15V14.71h-3.26l-10.83,13.34V14.71h-3.15v17.66h3.26l10.83-13.41v13.41Zm-5.12-19.5c-1.28,0-2.35-.17-3.2-.5-.85-.33-1.54-.77-2.07-1.28-.53-.52-.92-1.09-1.16-1.71-.24-.61-.39-1.19-.47-1.74l-.03-.23h4.45v.2c0,.26,.03,.54,.1,.83,.06,.28,.18,.54,.35,.78,.16,.24,.41,.43,.74,.58,.33,.15,.77,.23,1.29,.23s.96-.08,1.29-.23c.32-.15,.57-.34,.74-.58,.17-.24,.29-.51,.35-.78,.07-.29,.1-.56,.1-.83v-.2h4.44l-.03,.23c-.07,.55-.23,1.13-.47,1.74-.24,.62-.63,1.19-1.16,1.71-.53,.52-1.23,.95-2.07,1.28-.84,.33-1.92,.5-3.2,.5Zm-6.46-5.06c.08,.45,.21,.92,.41,1.41,.22,.56,.58,1.09,1.07,1.57,.49,.48,1.14,.88,1.94,1.19,.8,.31,1.82,.47,3.05,.47s2.25-.16,3.05-.47c.8-.31,1.45-.72,1.94-1.19,.49-.48,.85-1,1.07-1.57,.19-.49,.33-.97,.41-1.41h-3.58c-.01,.23-.05,.47-.1,.71-.08,.33-.21,.64-.41,.92-.21,.3-.51,.54-.9,.71-.39,.17-.88,.26-1.46,.26s-1.08-.09-1.46-.26c-.39-.18-.7-.42-.9-.71-.2-.29-.34-.6-.41-.92-.06-.24-.09-.48-.1-.71h-3.58Z"/>
    </g>
    <g>
      <path class="cls-6" d="M92.28,51.28v14.47h-3.56v-18.06h13.18v3.59h-9.62Z"/>
      <path class="cls-6" d="M92.49,65.95h-3.96v-18.47h13.59v4h-9.62v14.47Zm-3.56-.41h3.15v-14.47h9.62v-3.18h-12.77v17.66Z"/>
    </g>
    <g>
      <path class="cls-6" d="M126.73,56.54c0,1.53-.3,2.91-.91,4.11-.61,1.21-1.4,2.23-2.39,3.07-.99,.84-2.13,1.48-3.42,1.92-1.29,.44-2.63,.66-4,.66s-2.7-.22-3.98-.65c-1.28-.43-2.42-1.06-3.41-1.88-.99-.82-1.78-1.84-2.37-3.03-.59-1.2-.89-2.56-.89-4.1s.3-2.89,.91-4.08,1.41-2.18,2.41-3c1-.81,2.14-1.43,3.42-1.85,1.28-.42,2.6-.63,3.95-.63s2.67,.2,3.96,.59c1.29,.4,2.43,.99,3.42,1.78,.99,.79,1.79,1.78,2.39,2.96s.91,2.56,.91,4.11Zm-3.8,.03c0-1-.2-1.87-.59-2.6-.39-.73-.92-1.34-1.56-1.81-.65-.48-1.39-.82-2.21-1.05-.82-.22-1.66-.33-2.52-.33s-1.73,.12-2.56,.35c-.82,.23-1.55,.59-2.19,1.08-.64,.49-1.15,1.1-1.55,1.85-.39,.74-.59,1.63-.59,2.65s.2,1.91,.59,2.65c.39,.74,.92,1.36,1.57,1.85,.65,.49,1.39,.85,2.21,1.08,.82,.23,1.68,.35,2.56,.35s1.69-.13,2.5-.4c.81-.27,1.54-.66,2.19-1.17,.65-.51,1.17-1.14,1.56-1.9,.39-.76,.59-1.62,.59-2.6Z"/>
      <path class="cls-6" d="M116.01,66.51c-1.39,0-2.75-.22-4.05-.66-1.3-.44-2.47-1.08-3.47-1.92-1.01-.84-1.82-1.88-2.43-3.1-.6-1.22-.91-2.63-.91-4.19s.31-2.96,.93-4.17c.62-1.2,1.44-2.24,2.46-3.06,1.02-.83,2.19-1.46,3.49-1.88,2.59-.85,5.42-.84,8.03-.04,1.31,.4,2.49,1.01,3.49,1.81,1.01,.81,1.83,1.82,2.45,3.03,.62,1.21,.93,2.62,.93,4.21s-.31,2.97-.93,4.21c-.61,1.23-1.44,2.28-2.44,3.13-1.01,.85-2.18,1.51-3.49,1.95-1.31,.45-2.68,.67-4.06,.67Zm.03-19.21c-1.32,0-2.63,.21-3.88,.62-1.25,.41-2.38,1.02-3.36,1.81-.97,.79-1.77,1.78-2.36,2.93-.59,1.15-.89,2.49-.89,3.99s.29,2.84,.87,4.01c.58,1.17,1.36,2.17,2.32,2.97,.97,.81,2.09,1.43,3.34,1.85,1.25,.42,2.57,.63,3.92,.63s2.67-.22,3.93-.65c1.26-.43,2.39-1.06,3.36-1.88,.96-.82,1.75-1.83,2.34-3,.59-1.17,.89-2.53,.89-4.02s-.3-2.87-.89-4.02c-.59-1.15-1.38-2.13-2.34-2.9-.96-.77-2.09-1.36-3.36-1.74-1.27-.39-2.58-.58-3.9-.58Zm.03,15.55c-.9,0-1.78-.12-2.61-.36-.84-.24-1.61-.61-2.28-1.11-.67-.5-1.22-1.15-1.62-1.92-.41-.77-.61-1.69-.61-2.75s.21-1.98,.61-2.75c.41-.77,.95-1.41,1.6-1.91,.65-.5,1.41-.88,2.26-1.12,1.65-.47,3.49-.47,5.19-.02,.84,.23,1.61,.59,2.28,1.08,.67,.49,1.22,1.13,1.62,1.88,.41,.76,.62,1.67,.62,2.69s-.21,1.91-.61,2.69c-.41,.78-.95,1.44-1.62,1.97-.67,.52-1.42,.93-2.25,1.2-.83,.27-1.69,.41-2.57,.41Zm-.03-11.86c-.86,0-1.7,.11-2.5,.34-.8,.22-1.51,.58-2.12,1.05-.61,.47-1.11,1.07-1.49,1.78-.38,.71-.57,1.57-.57,2.55s.19,1.84,.57,2.55c.38,.71,.89,1.31,1.51,1.78,.63,.47,1.35,.82,2.14,1.05,1.58,.45,3.34,.48,4.94-.05,.78-.26,1.5-.64,2.13-1.13,.62-.49,1.13-1.11,1.51-1.83,.38-.72,.57-1.56,.57-2.5s-.19-1.8-.57-2.5c-.38-.7-.88-1.29-1.51-1.75-.63-.46-1.35-.8-2.14-1.01-.8-.22-1.63-.32-2.47-.32Z"/>
    </g>
    <g>
      <path class="cls-6" d="M132.73,65.75v-18.06h11.47c.86,0,1.66,.13,2.39,.4,.73,.27,1.35,.65,1.87,1.15,.51,.5,.91,1.1,1.2,1.81,.29,.71,.44,1.49,.44,2.35,0,1.81-.58,3.24-1.73,4.27-1.15,1.03-2.75,1.55-4.79,1.55h-1.6c-.84,0-1.53,.02-2.07,.05-.55,.03-1.02,.09-1.43,.16-.41,.07-.77,.17-1.1,.31-.33,.14-.69,.31-1.08,.52v5.47h-3.56Zm3.56-9.07c.79-.46,1.67-.76,2.65-.87,.98-.12,1.99-.17,3.03-.17h1.6c.86,0,1.55-.14,2.07-.42s.78-.89,.78-1.85c0-.44-.08-.8-.24-1.06-.16-.27-.38-.48-.65-.63-.27-.15-.57-.26-.91-.31-.34-.06-.69-.09-1.06-.09h-7.29v5.4Z"/>
      <path class="cls-6" d="M136.49,65.95h-3.96v-18.47h11.68c.88,0,1.71,.14,2.46,.41,.76,.28,1.41,.68,1.94,1.2,.53,.52,.95,1.15,1.25,1.88,.3,.73,.45,1.55,.45,2.43,0,1.87-.6,3.35-1.79,4.42-1.18,1.06-2.84,1.6-4.93,1.6h-1.6c-.83,0-1.52,.02-2.06,.05-.54,.03-1.01,.09-1.41,.15-.39,.07-.74,.17-1.05,.3-.29,.12-.61,.28-.96,.46v5.56Zm-3.56-.41h3.15v-5.39l.11-.06c.4-.21,.77-.39,1.1-.53,.34-.15,.72-.26,1.14-.33,.41-.07,.9-.12,1.45-.16,.55-.03,1.25-.05,2.09-.05h1.6c1.98,0,3.55-.5,4.66-1.5,1.1-.99,1.66-2.38,1.66-4.12,0-.83-.14-1.59-.42-2.28-.28-.68-.67-1.27-1.16-1.74-.49-.48-1.09-.85-1.79-1.11-.71-.26-1.49-.39-2.32-.39h-11.27v17.66Zm3.15-8.51v-5.96h7.49c.38,0,.75,.03,1.1,.09,.36,.06,.69,.18,.97,.34,.3,.17,.54,.4,.72,.7,.18,.3,.27,.69,.27,1.17,0,1.03-.3,1.71-.89,2.03-.55,.29-1.28,.44-2.17,.44h-1.6c-1.03,0-2.04,.06-3.01,.17-.94,.11-1.81,.4-2.57,.85l-.31,.18Zm.41-5.56v4.86c.73-.38,1.55-.62,2.42-.73,.98-.12,2.01-.18,3.06-.18h1.6c.82,0,1.49-.13,1.98-.39,.45-.24,.68-.8,.68-1.67,0-.4-.07-.72-.21-.96-.14-.24-.34-.42-.57-.56-.25-.14-.53-.24-.84-.29-.33-.06-.67-.08-1.03-.08h-7.08Z"/>
    </g>
    <g>
      <path class="cls-6" d="M175.41,56.54c0,1.53-.3,2.91-.91,4.11-.61,1.21-1.4,2.23-2.39,3.07-.99,.84-2.13,1.48-3.42,1.92-1.29,.44-2.63,.66-4,.66s-2.7-.22-3.98-.65c-1.28-.43-2.42-1.06-3.41-1.88-.99-.82-1.78-1.84-2.37-3.03-.59-1.2-.89-2.56-.89-4.1s.3-2.89,.91-4.08,1.41-2.18,2.41-3c1-.81,2.14-1.43,3.42-1.85,1.28-.42,2.6-.63,3.95-.63s2.67,.2,3.96,.59c1.29,.4,2.43,.99,3.42,1.78,.99,.79,1.79,1.78,2.39,2.96s.91,2.56,.91,4.11Zm-3.8,.03c0-1-.2-1.87-.59-2.6-.39-.73-.92-1.34-1.56-1.81-.65-.48-1.39-.82-2.21-1.05-.82-.22-1.66-.33-2.52-.33s-1.73,.12-2.56,.35c-.82,.23-1.55,.59-2.19,1.08-.64,.49-1.15,1.1-1.55,1.85-.39,.74-.59,1.63-.59,2.65s.2,1.91,.59,2.65c.39,.74,.92,1.36,1.57,1.85,.65,.49,1.39,.85,2.21,1.08,.82,.23,1.68,.35,2.56,.35s1.69-.13,2.5-.4c.81-.27,1.54-.66,2.19-1.17,.65-.51,1.17-1.14,1.56-1.9,.39-.76,.59-1.62,.59-2.6Z"/>
      <path class="cls-6" d="M164.69,66.51c-1.39,0-2.75-.22-4.05-.66-1.3-.44-2.47-1.08-3.47-1.92-1.01-.84-1.82-1.88-2.43-3.1-.6-1.22-.91-2.63-.91-4.19s.31-2.96,.93-4.17c.62-1.2,1.44-2.24,2.46-3.06,1.02-.83,2.19-1.46,3.49-1.88,2.59-.85,5.42-.84,8.03-.04,1.31,.4,2.49,1.01,3.49,1.81,1.01,.81,1.83,1.82,2.45,3.03,.62,1.21,.93,2.62,.93,4.21s-.31,2.97-.93,4.21c-.61,1.23-1.44,2.28-2.44,3.13-1.01,.85-2.18,1.51-3.49,1.95-1.31,.45-2.68,.67-4.06,.67Zm.03-19.21c-1.32,0-2.63,.21-3.88,.62-1.25,.41-2.38,1.02-3.36,1.81-.97,.79-1.77,1.78-2.36,2.93-.59,1.15-.89,2.49-.89,3.99s.29,2.84,.87,4.01c.58,1.17,1.36,2.17,2.32,2.97,.97,.81,2.09,1.43,3.34,1.85,1.25,.42,2.57,.63,3.92,.63s2.67-.22,3.93-.65c1.26-.43,2.39-1.06,3.36-1.88,.96-.82,1.75-1.83,2.34-3,.59-1.17,.89-2.53,.89-4.02s-.3-2.87-.89-4.02c-.59-1.15-1.38-2.13-2.34-2.9-.96-.77-2.09-1.36-3.36-1.74-1.27-.39-2.58-.58-3.9-.58Zm.03,15.55c-.9,0-1.78-.12-2.61-.36-.84-.24-1.61-.61-2.28-1.11-.67-.5-1.22-1.15-1.62-1.92-.41-.77-.61-1.69-.61-2.75s.21-1.98,.61-2.75c.41-.77,.95-1.41,1.6-1.91,.65-.5,1.41-.88,2.26-1.12,1.65-.47,3.49-.47,5.19-.02,.84,.23,1.61,.59,2.28,1.08,.67,.49,1.22,1.13,1.62,1.88,.41,.76,.62,1.67,.62,2.69s-.21,1.91-.61,2.69c-.41,.78-.95,1.44-1.62,1.97-.67,.52-1.42,.93-2.25,1.2-.83,.27-1.69,.41-2.57,.41Zm-.03-11.86c-.86,0-1.7,.11-2.5,.34-.8,.22-1.51,.58-2.12,1.05-.61,.47-1.11,1.07-1.49,1.78-.38,.71-.57,1.57-.57,2.55s.19,1.84,.57,2.55c.38,.71,.89,1.31,1.51,1.78,.63,.47,1.35,.82,2.14,1.05,1.58,.45,3.34,.48,4.94-.05,.78-.26,1.5-.64,2.13-1.13,.62-.49,1.13-1.11,1.51-1.83,.38-.72,.57-1.56,.57-2.5s-.19-1.8-.57-2.5c-.38-.7-.88-1.29-1.51-1.75-.63-.46-1.35-.8-2.14-1.01-.8-.22-1.63-.32-2.47-.32Z"/>
    </g>
    <g>
      <path class="cls-6" d="M197.17,69.76v-4.01h-14.92v4.01h-3.63v-7.64h3.49c.86-1.09,1.55-2.13,2.07-3.12,.52-.99,.93-1.93,1.22-2.82,.29-.89,.52-1.75,.68-2.56,.16-.81,.33-1.59,.49-2.34h-2.86l-1.6-3.59h16.42v14.44h2.27v7.64h-3.63Zm-2.2-7.64v-10.84h-4.64c-.21,.95-.44,1.93-.7,2.93-.26,1-.54,1.98-.85,2.93-.31,.95-.67,1.86-1.08,2.72-.41,.86-.85,1.62-1.34,2.27h8.61Z"/>
      <path class="cls-6" d="M201,69.96h-4.03v-4.01h-14.52v4.01h-4.03v-8.04h3.59c.82-1.05,1.49-2.07,1.99-3.01,.51-.97,.92-1.91,1.21-2.79,.29-.88,.51-1.74,.67-2.54,.14-.71,.29-1.42,.44-2.09h-2.74l-1.79-4h16.94v14.44h2.27v8.04Zm-3.63-.41h3.22v-7.23h-2.27v-14.44h-15.91l1.42,3.18h2.98l-.05,.25c-.16,.75-.33,1.53-.49,2.33-.16,.82-.39,1.69-.69,2.59-.29,.9-.71,1.87-1.23,2.86-.53,.99-1.23,2.05-2.09,3.15l-.06,.08h-3.38v7.23h3.22v-4.01h15.33v4.01Zm-2.2-7.23h-9.22l.24-.33c.48-.64,.92-1.39,1.32-2.23,.4-.85,.76-1.76,1.07-2.7,.31-.94,.6-1.92,.85-2.92,.25-1,.49-1.98,.7-2.92l.03-.16h5v11.25Zm-8.42-.41h8.01v-10.44h-4.27c-.2,.9-.42,1.83-.66,2.78-.26,1-.55,1.99-.86,2.94-.31,.95-.68,1.88-1.09,2.74-.35,.73-.72,1.39-1.13,1.98Z"/>
    </g>
  </g>
  <g>
    <path class="cls-5" d="M35.79,2.04C17.68,2.04,3,16.72,3,34.83c0,3.36,.51,6.61,1.45,9.67,0,0,1.81,6.76,6.56,11.81,.11,.12,.25,.17,.25,.17,0,0,.09,.04,.19,.05,1.49,.17,3.25-4.11,4.3-7.55,.69-2.23,1-4.11,1.16-5.27,.04-.33,.06-.73,.03-1.18-.02-.33-.07-.63-.13-.89-.27-1.21-.54-2.45-.79-3.7-.38-1.86-.73-3.68-1.05-5.47-.02-.09-.04-.25,.01-.44,.01-.05,.12-.42,.46-.58,.44-.21,.91,.09,1.03,.17,.23,.15,.36,.34,.43,.45,.46,1.24,.92,2.47,1.38,3.71,.25,.77,.49,1.42,.69,1.93,.3,.77,.64,1.55,1.27,2.09,.21,.18,.44,.32,.73,.31,.07,0,.38-.03,.6-.28,.09-.11,.13-.22,.15-.29,.82-6.14,1.56-10.62,1.89-11.43,.07-.17,.24-.57,.61-.72,.24-.1,.64-.12,1,.01,.01,0,.02,0,.03,.01,.08,.03,.28,.1,.43,.3,.08,.11,.12,.22,.14,.3-.14,3.68-.28,7.35-.41,11.03-.08,.52,.04,.94,.27,1.04,.06,.03,.18,.05,.29,0,.18-.06,.27-.23,.3-.29,.16-.29,.85-2.26,1.74-4.96,.15-.38,.25-.69,.32-.88,.43-1.27,1.53-4.9,1.9-5.69,.06-.13,.15-.29,.3-.43,.17-.16,.35-.24,.45-.28,.13-.06,.27-.12,.44-.14,.4-.03,.81,.21,1.02,.47,.18,.22,.21,.48,.11,1.62-.09,.97-.19,1.61-.19,1.61-.07,.44-.21,1.37-.34,2.05-.25,1.26-.83,3.55-1.77,6.43-.2,.41-.28,.78-.32,1.02-.06,.43-.11,.81,.12,1.03,.22,.21,.56,.16,.58,.16,.31-.05,.5-.3,.6-.43,.75-.99,1.6-2.2,1.67-2.31,1.12-1.69,2.24-3.38,3.36-5.07,.27-.41,.56-.69,.76-.86,.34-.29,.62-.53,1.04-.56,.12-.01,.44-.03,.73,.16,.28,.19,.38,.46,.43,.6,.24,.68-.04,1.39-.19,1.76-.44,1.08-.91,2.15-1.4,3.2-.5,.93-1.22,2.23-2.15,3.77-.71,1.18-1.07,1.71-1.84,3.05,0,0-.9,1.56-1.86,4.07-.07,.19-.43,1.17-.2,2.2,.08,.36,.21,.61,.42,.75,.36,.23,.82,.08,1.03,.02,.38-.11,1.39-.19,3.39-.36,1.59-.13,2.36,0,2.65,.06,.44,.09,1.01,.25,1.6,.63,.36,.23,.79,.52,1,1.05,.13,.32,.13,.61,.13,.74,0,.26,0,.53-.16,.73-.17,.21-.45,.26-.6,.28-.99,.13-2.13-.09-2.94-.07-.44,.01-1.13,.28-2.52,.82-1.19,.46-2.05,.89-2.23,.98-1.44,.72-1.38,.86-2.54,1.41-.75,.36-1.44,.61-2.82,1.11-.94,.34-1.34,.46-1.93,.84-.68,.43-1.11,.89-1.35,1.14-.68,.73-.96,1.31-1.38,2.17-.16,.34-.31,.7-.17,1.03,.05,.12,.14,.24,.43,.45,.1,.07,.19,.13,.28,.19,3.69,1.44,7.71,2.23,11.91,2.23,18.11,0,32.79-14.68,32.79-32.79S53.9,2.04,35.79,2.04Z"/>
    <path class="cls-6" d="M35.79,2.04C17.68,2.04,3,16.72,3,34.83c0,3.7,.61,7.26,1.74,10.58-.07-.77-.11-1.55-.11-2.34,0-13.16,10.67-23.82,23.82-23.82s23.82,10.67,23.82,23.82-10.43,23.59-23.39,23.82c2.23,.48,4.53,.73,6.9,.73,18.11,0,32.79-14.68,32.79-32.79S53.9,2.04,35.79,2.04Z"/>
    <path class="cls-2" d="M62.08,33.98l-1.11-.18c-.05,0-.1-.04-.12-.09l-.48-1.01c-.06-.12-.23-.12-.29,0l-.51,1s-.05,.06-.09,.08c-.01,0-.03,0-.04,0l-1.11,.14s-.03,0-.04,.01c0,0,0,0,0,0,0,0-.01,0-.02,0,0,0,0,0,0,0,0,0-.01,0-.02,.01,0,0,0,0,0,0-.06,.05-.08,.14-.03,.21,0,0,.01,.02,.02,.02l.79,.8s.01,.01,.02,.02c0,0,0,0,0,0,0,0,0,.01,.01,.02,0,0,0,0,0,0,0,.01,.01,.03,.01,.04,0,0,0,.02,0,.02,0,0,0,0,0,0,0,0,0,.02,0,.03l-.1,.53-.11,.57c-.01,.07,.02,.12,.06,.16,.05,.03,.11,.05,.17,.02l.28-.14,.72-.37s.09-.02,.13,0c0,0,0,0,0,0,0,0,.01,0,.02,0l.56,.31,.43,.23c.1,.05,.21,0,.23-.1,0,0,0,0,0,0,0,0,0-.01,0-.02,0-.02,0-.03,0-.05l-.02-.15-.15-.95s0-.02,0-.04c0,0,0,0,0,0,0-.01,0-.02,0-.03,0-.03,.02-.05,.04-.07l.82-.77c.1-.09,.05-.26-.09-.28Z"/>
    <path class="cls-4" d="M57.75,20.75l-1.78-.2c-.08,0-.16-.06-.2-.14l-.84-1.58c-.1-.19-.38-.18-.47,.01l-.74,1.63c-.03,.06-.07,.1-.13,.13-.02,0-.04,.01-.06,.02l-1.77,.31s-.05,.01-.07,.02c0,0,0,0,0,0,0,0-.02,0-.03,.02,0,0,0,0,0,0,0,0-.02,.01-.02,.02,0,0,0,0,0,0-.09,.09-.11,.24-.03,.34,0,.01,.02,.03,.03,.04l1.32,1.21s.02,.02,.03,.03c0,0,0,0,0,0,0,.01,.02,.02,.02,.03,0,0,0,0,0,0,.01,.02,.02,.04,.02,.07,0,.01,0,.03,0,.04,0,0,0,0,0,0,0,.01,0,.03,0,.04l-.12,.85-.13,.92c-.01,.11,.03,.2,.11,.25,.08,.05,.18,.06,.27,.01l.43-.24,1.13-.64c.07-.04,.14-.04,.21-.02,0,0,0,0,0,0,0,0,.02,0,.03,.01l.92,.45,.7,.34c.16,.08,.33-.02,.37-.17,0,0,0,0,0,0,0,0,0-.02,0-.03,0-.02,0-.05,0-.08l-.05-.24-.31-1.51s0-.04,0-.06c0,0,0,0,0,0,0-.02,0-.04,0-.05,.01-.04,.03-.09,.07-.12l1.25-1.29c.15-.15,.06-.41-.16-.44Z"/>
    <path class="cls-1" d="M46.84,10.33l-2.73-.18c-.13,0-.25-.08-.31-.19l-1.4-2.35c-.17-.28-.59-.25-.71,.06l-1.01,2.54c-.04,.09-.1,.16-.19,.21-.03,.01-.06,.03-.09,.03l-2.67,.61s-.07,.02-.1,.04c0,0,0,0,0,0-.01,0-.03,.02-.04,.02,0,0,0,0,0,0-.01,0-.02,.02-.03,.03,0,0,0,0,0,0-.13,.14-.15,.37-.02,.53,.02,.02,.03,.04,.05,.06l2.11,1.75s.03,.03,.04,.04c0,0,0,0,.01,.01,.01,.02,.02,.03,.03,.05,0,0,0,0,0,0,.02,.03,.03,.07,.04,.1,0,.02,0,.04,0,.06,0,0,0,0,0,0,0,.02,0,.04,0,.06l-.12,1.31-.13,1.42c-.01,.16,.07,.3,.19,.37,.12,.07,.28,.08,.42,0l.64-.4,1.68-1.06c.1-.06,.21-.08,.32-.05,0,0,0,0,0,0,.01,0,.03,0,.04,.02l1.43,.61,1.09,.47c.25,.11,.5-.06,.55-.29,0,0,0,0,0-.01,0-.01,0-.03,0-.05,0-.04,0-.08-.01-.12l-.09-.37-.58-2.29s-.01-.06-.01-.09c0,0,0,0,0,0,0-.03,0-.06,0-.08,.01-.07,.04-.13,.09-.19l1.8-2.06c.22-.25,.06-.63-.27-.66Z"/>
    <path class="cls-3" d="M60.95,45.16l-.77,.04s-.07-.01-.09-.04l-.47-.62c-.06-.07-.17-.05-.2,.04l-.21,.75s-.02,.05-.05,.06c0,0-.02,0-.02,.01l-.73,.25s-.02,0-.03,.01c0,0,0,0,0,0,0,0,0,0,0,0,0,0,0,0,0,0,0,0,0,0,0,0,0,0,0,0,0,0-.03,.04-.03,.11,.01,.15,0,0,.01,0,.02,.01l.65,.43s0,0,.01,.01c0,0,0,0,0,0,0,0,0,0,.01,.01,0,0,0,0,0,0,0,0,.01,.02,.01,.03,0,0,0,.01,0,.02,0,0,0,0,0,0,0,0,0,.01,0,.02v.37s.02,.4,.02,.4c0,.05,.03,.08,.06,.1,.04,.02,.08,.02,.12-.01l.17-.13,.44-.35s.06-.03,.09-.02c0,0,0,0,0,0,0,0,0,0,.01,0l.42,.13,.32,.1c.07,.02,.14-.03,.14-.1,0,0,0,0,0,0,0,0,0,0,0-.01,0-.01,0-.02,0-.03l-.04-.1-.23-.62s0-.02,0-.02c0,0,0,0,0,0,0,0,0-.02,0-.02,0-.02,0-.04,.02-.06l.44-.64c.05-.08,0-.18-.1-.18Z"/>
  </g>
</svg>